<mxfile host="app.diagrams.net" modified="2022-04-09T00:38:22.181Z" agent="5.0 (Windows NT 10.0; Win64; x64) AppleWebKit/537.36 (KHTML, like Gecko) Chrome/100.0.4896.79 Safari/537.36" etag="ZqoVGluy_Bs0LdMmi8_y" version="16.5.6" type="github">
  <diagram id="DgwlVZUd8uidN4rl617Z" name="Page-1">
    <mxGraphModel dx="1178" dy="433" grid="1" gridSize="10" guides="1" tooltips="1" connect="1" arrows="1" fold="1" page="1" pageScale="1" pageWidth="550" pageHeight="350" math="0" shadow="0">
      <root>
        <mxCell id="0" />
        <mxCell id="1" parent="0" />
        <mxCell id="cHR1h492UewolUuHBB2A-1" value="Browser" style="swimlane;" vertex="1" parent="1">
          <mxGeometry x="10" y="10" width="170" height="280" as="geometry">
            <mxRectangle x="10" y="40" width="80" height="23" as="alternateBounds" />
          </mxGeometry>
        </mxCell>
        <mxCell id="cHR1h492UewolUuHBB2A-3" value="Game Client&#xa;&#xa;Input capture / routing&#xa;Graphic msg routing&#xa;Worker management" style="shape=module;align=left;spacingLeft=20;align=center;verticalAlign=top;fontSize=9;" vertex="1" parent="cHR1h492UewolUuHBB2A-1">
          <mxGeometry x="20" y="190" width="120" height="70" as="geometry" />
        </mxCell>
        <mxCell id="cHR1h492UewolUuHBB2A-4" value="3D Client&#xa;(graphics rendering)" style="shape=module;align=left;spacingLeft=20;align=center;verticalAlign=top;fontSize=10;fontStyle=0" vertex="1" parent="cHR1h492UewolUuHBB2A-1">
          <mxGeometry x="20" y="50" width="120" height="120" as="geometry" />
        </mxCell>
        <mxCell id="cHR1h492UewolUuHBB2A-5" value="" style="endArrow=classic;html=1;rounded=0;" edge="1" parent="cHR1h492UewolUuHBB2A-1" target="cHR1h492UewolUuHBB2A-4">
          <mxGeometry width="50" height="50" relative="1" as="geometry">
            <mxPoint x="80" y="190" as="sourcePoint" />
            <mxPoint x="350" y="150" as="targetPoint" />
          </mxGeometry>
        </mxCell>
        <mxCell id="cHR1h492UewolUuHBB2A-7" value="Web Worker" style="swimlane;fontSize=10;" vertex="1" parent="1">
          <mxGeometry x="210" y="35" width="160" height="230" as="geometry" />
        </mxCell>
        <mxCell id="cHR1h492UewolUuHBB2A-8" value="Game&#xa;&#xa;Input handling / routing&#xa;Game Screens&#xa;Local game logic&#xa;Local Server&#xa;Remote Server Client" style="shape=module;align=left;spacingLeft=20;align=center;verticalAlign=top;fontSize=10;" vertex="1" parent="cHR1h492UewolUuHBB2A-7">
          <mxGeometry x="10" y="50" width="130" height="160" as="geometry" />
        </mxCell>
        <mxCell id="cHR1h492UewolUuHBB2A-9" value="" style="endArrow=classic;startArrow=classic;html=1;rounded=0;fontSize=10;entryX=1;entryY=0.5;entryDx=0;entryDy=0;exitX=0.081;exitY=0.835;exitDx=0;exitDy=0;exitPerimeter=0;" edge="1" parent="1" source="cHR1h492UewolUuHBB2A-8" target="cHR1h492UewolUuHBB2A-3">
          <mxGeometry width="50" height="50" relative="1" as="geometry">
            <mxPoint x="310" y="180" as="sourcePoint" />
            <mxPoint x="360" y="130" as="targetPoint" />
          </mxGeometry>
        </mxCell>
        <mxCell id="cHR1h492UewolUuHBB2A-10" value="" style="endArrow=none;dashed=1;html=1;dashPattern=1 3;strokeWidth=2;rounded=0;fontSize=10;" edge="1" parent="1">
          <mxGeometry width="50" height="50" relative="1" as="geometry">
            <mxPoint x="398" y="290" as="sourcePoint" />
            <mxPoint x="398" y="10" as="targetPoint" />
          </mxGeometry>
        </mxCell>
        <mxCell id="cHR1h492UewolUuHBB2A-11" value="Remote&lt;br&gt;Server" style="ellipse;shape=cloud;whiteSpace=wrap;html=1;align=center;fontSize=10;" vertex="1" parent="1">
          <mxGeometry x="430" y="140" width="100" height="60" as="geometry" />
        </mxCell>
        <mxCell id="cHR1h492UewolUuHBB2A-12" value="" style="endArrow=classic;startArrow=classic;html=1;rounded=0;fontSize=10;entryX=0.1;entryY=0.667;entryDx=0;entryDy=0;entryPerimeter=0;exitX=1.009;exitY=0.568;exitDx=0;exitDy=0;exitPerimeter=0;" edge="1" parent="1" source="cHR1h492UewolUuHBB2A-8" target="cHR1h492UewolUuHBB2A-11">
          <mxGeometry width="50" height="50" relative="1" as="geometry">
            <mxPoint x="330" y="190" as="sourcePoint" />
            <mxPoint x="380" y="140" as="targetPoint" />
          </mxGeometry>
        </mxCell>
        <mxCell id="cHR1h492UewolUuHBB2A-13" value="Internet" style="text;html=1;align=center;verticalAlign=middle;resizable=0;points=[];autosize=1;strokeColor=none;fillColor=none;fontSize=10;rotation=-90;" vertex="1" parent="1">
          <mxGeometry x="380" y="24" width="50" height="20" as="geometry" />
        </mxCell>
        <mxCell id="cHR1h492UewolUuHBB2A-14" value="Keyboard&lt;br&gt;Game controller" style="rounded=0;whiteSpace=wrap;html=1;fontSize=10;" vertex="1" parent="1">
          <mxGeometry x="10" y="310" width="120" height="30" as="geometry" />
        </mxCell>
        <mxCell id="cHR1h492UewolUuHBB2A-15" value="" style="endArrow=classic;html=1;rounded=0;fontSize=10;exitX=0.5;exitY=0;exitDx=0;exitDy=0;" edge="1" parent="1" source="cHR1h492UewolUuHBB2A-14" target="cHR1h492UewolUuHBB2A-3">
          <mxGeometry width="50" height="50" relative="1" as="geometry">
            <mxPoint x="330" y="190" as="sourcePoint" />
            <mxPoint x="380" y="140" as="targetPoint" />
          </mxGeometry>
        </mxCell>
        <mxCell id="cHR1h492UewolUuHBB2A-16" value="Keyboard&lt;br&gt;Game controller" style="rounded=0;whiteSpace=wrap;html=1;fontSize=10;" vertex="1" parent="1">
          <mxGeometry x="155" y="310" width="120" height="30" as="geometry" />
        </mxCell>
        <mxCell id="cHR1h492UewolUuHBB2A-17" value="" style="endArrow=classic;html=1;rounded=0;fontSize=9;exitX=0.158;exitY=0.033;exitDx=0;exitDy=0;entryX=0.919;entryY=1.031;entryDx=0;entryDy=0;entryPerimeter=0;exitPerimeter=0;" edge="1" parent="1" source="cHR1h492UewolUuHBB2A-16" target="cHR1h492UewolUuHBB2A-3">
          <mxGeometry width="50" height="50" relative="1" as="geometry">
            <mxPoint x="330" y="180" as="sourcePoint" />
            <mxPoint x="380" y="130" as="targetPoint" />
          </mxGeometry>
        </mxCell>
      </root>
    </mxGraphModel>
  </diagram>
</mxfile>
